<svg xmlns="http://www.w3.org/2000/svg" viewBox="0 0 80 80" width="16px" height="16px"><path fill="#8bb7f0" d="M4.5 4.5H75.5V75.5H4.5z"/><path fill="#4e7ab5" d="M75,5v70H5V5H75 M76,4H4v72h72V4L76,4z"/><path fill="#fff" d="M16 32.154L27.077 32.154 27.077 54.169 27.077 64 16 64zM21.538 28.923L21.538 28.923c-3.323 0-5.538-2.354-5.538-5.262s2.215-5.123 5.538-5.123 5.4 2.215 5.538 5.123C27.077 26.569 25 28.923 21.538 28.923zM64.054 64H53.119c0 0 0-16.539 0-17.77s-.137-5.468-4.784-5.468c-4.101 0-4.784 3.964-4.784 5.468s0 17.77 0 17.77H32.615V32.561h10.935v4.237c0 0 2.187-4.237 8.611-4.237 6.561 0 11.892 4.511 11.892 13.669V64z"/></svg>