<?xml version="1.0" encoding="UTF-8" standalone="no"?>
<!-- Generator: Adobe Illustrator 19.0.0, SVG Export Plug-In . SVG Version: 6.00 Build 0)  -->

<svg
   xmlns:dc="http://purl.org/dc/elements/1.1/"
   xmlns:cc="http://creativecommons.org/ns#"
   xmlns:rdf="http://www.w3.org/1999/02/22-rdf-syntax-ns#"
   xmlns:svg="http://www.w3.org/2000/svg"
   xmlns="http://www.w3.org/2000/svg"
   xmlns:sodipodi="http://sodipodi.sourceforge.net/DTD/sodipodi-0.dtd"
   xmlns:inkscape="http://www.inkscape.org/namespaces/inkscape"
   version="1.1"
   id="Layer_1"
   x="0px"
   y="0px"
   viewBox="0 0 16 16.001276"
   xml:space="preserve"
   sodipodi:docname="email.svg"
   inkscape:version="0.92.5 (2060ec1f9f, 2020-04-08)"
   width="16"
   height="16.001276"><metadata
   id="metadata45"><rdf:RDF><cc:Work
       rdf:about=""><dc:format>image/svg+xml</dc:format><dc:type
         rdf:resource="http://purl.org/dc/dcmitype/StillImage" /><dc:title></dc:title></cc:Work></rdf:RDF></metadata><defs
   id="defs43">
	
	
	
</defs><sodipodi:namedview
   pagecolor="#ffffff"
   bordercolor="#666666"
   borderopacity="1"
   objecttolerance="10"
   gridtolerance="10"
   guidetolerance="10"
   inkscape:pageopacity="0"
   inkscape:pageshadow="2"
   inkscape:window-width="1860"
   inkscape:window-height="1016"
   id="namedview41"
   showgrid="false"
   inkscape:zoom="17.699987"
   inkscape:cx="-9.324538"
   inkscape:cy="-1.0979834"
   inkscape:window-x="60"
   inkscape:window-y="27"
   inkscape:window-maximized="1"
   inkscape:current-layer="Layer_1"
   fit-margin-top="0"
   fit-margin-left="0"
   fit-margin-right="0"
   fit-margin-bottom="0" />
<g
   id="g913"><path
     style="fill:#0071ae;stroke-width:0.03750296;fill-opacity:1"
     d="M 7.9999814,16.001275 C 3.5887708,16.001275 0,12.412505 0,8.0012565 0,3.5894083 3.5887708,0 7.9999814,0 12.411192,0 16,3.5894083 16,8.0012565 c 0,0.5744329 -0.465636,1.0400696 -1.040069,1.0400696 -0.574433,0 -1.04007,-0.4656367 -1.04007,-1.0400696 0,-3.2648952 -2.655734,-5.9211173 -5.9198421,-5.9211173 -3.2641076,0 -5.9198422,2.6562221 -5.9198422,5.9211173 0,3.2642575 2.6557346,5.9198425 5.9198422,5.9198425 1.04442,0 2.0681761,-0.273134 2.9604091,-0.79015 0.497326,-0.287873 1.133527,-0.118397 1.421399,0.378442 0.288023,0.496989 0.118397,1.133377 -0.378442,1.4214 -1.208946,0.700368 -2.5932173,1.070484 -4.0034036,1.070484 z"
     id="path2"
     inkscape:connector-curvature="0" /><path
     style="fill:#0071ae;stroke-width:0.03750296;fill-opacity:1"
     d="m 7.9999814,12.523401 c -2.4920342,0 -4.5194067,-2.02801 -4.5194067,-4.5206819 0,-2.4928217 2.0273725,-4.5208318 4.5194067,-4.5208318 2.4933096,0 4.5219566,2.0280101 4.5219566,4.5208318 0,2.4926719 -2.02861,4.5206819 -4.5219566,4.5206819 z m 0,-6.9613745 c -1.3448936,0 -2.43923,1.0948239 -2.43923,2.4406551 0,1.3457187 1.0943364,2.4405054 2.43923,2.4405054 1.3463563,0 2.4417806,-1.0948242 2.4417806,-2.4405054 3.7e-5,-1.3458312 -1.0954243,-2.4406551 -2.4417806,-2.4406551 z"
     id="path4"
     inkscape:connector-curvature="0" /><path
     style="fill:#0071ae;stroke-width:0.03750296;fill-opacity:1"
     d="m 13.221519,12.523401 c -0.739746,0 -1.436589,-0.28866 -1.96223,-0.812389 -0.525004,-0.514428 -0.81749,-1.215471 -0.81749,-1.967368 V 8.0027191 c 0,-0.5744328 0.465637,-1.0400696 1.04007,-1.0400696 0.574433,0 1.040069,0.4656368 1.040069,1.0400696 V 9.743644 c 0,0.1332856 0.03473,0.326088 0.199704,0.487876 0.139211,0.138723 0.314574,0.211704 0.499877,0.211704 0.188189,0 0.364828,-0.07298 0.497814,-0.205441 0.128973,-0.128823 0.200491,-0.304674 0.200491,-0.4941015 V 8.0027566 c 0,-0.5744328 0.465636,-1.0400696 1.040069,-1.0400696 0.574433,0 1.04007,0.4656368 1.04007,1.0400696 v 1.7409249 c 0,0.7451835 -0.288023,1.4434885 -0.811114,1.9663925 -0.526579,0.524667 -1.225034,0.813327 -1.96733,0.813327 z"
     id="path6"
     inkscape:connector-curvature="0" /></g>
<g
   id="g10"
   transform="translate(-7.4181356,-402.72786)">
</g>
<g
   id="g12"
   transform="translate(-7.4181356,-402.72786)">
</g>
<g
   id="g14"
   transform="translate(-7.4181356,-402.72786)">
</g>
<g
   id="g16"
   transform="translate(-7.4181356,-402.72786)">
</g>
<g
   id="g18"
   transform="translate(-7.4181356,-402.72786)">
</g>
<g
   id="g20"
   transform="translate(-7.4181356,-402.72786)">
</g>
<g
   id="g22"
   transform="translate(-7.4181356,-402.72786)">
</g>
<g
   id="g24"
   transform="translate(-7.4181356,-402.72786)">
</g>
<g
   id="g26"
   transform="translate(-7.4181356,-402.72786)">
</g>
<g
   id="g28"
   transform="translate(-7.4181356,-402.72786)">
</g>
<g
   id="g30"
   transform="translate(-7.4181356,-402.72786)">
</g>
<g
   id="g32"
   transform="translate(-7.4181356,-402.72786)">
</g>
<g
   id="g34"
   transform="translate(-7.4181356,-402.72786)">
</g>
<g
   id="g36"
   transform="translate(-7.4181356,-402.72786)">
</g>
<g
   id="g38"
   transform="translate(-7.4181356,-402.72786)">
</g>
</svg>